<svg xmlns="http://www.w3.org/2000/svg" version="1.1" xmlns:xlink="http://www.w3.org/1999/xlink" xmlns:svgjs="http://svgjs.dev/svgjs" width="1000" height="1000" viewBox="0 0 1000 1000"><rect width="1000" height="1000" fill="#ffffff"></rect><g transform="matrix(0.7,0,0,0.7,149.57575757575756,389.54971391004756)"><svg viewBox="0 0 396 125" data-background-color="#ffffff" preserveAspectRatio="xMidYMid meet" height="315" width="1000" xmlns="http://www.w3.org/2000/svg" xmlns:xlink="http://www.w3.org/1999/xlink"><g id="tight-bounds" transform="matrix(1,0,0,1,0.2400000000000091,0.11354086731998336)"><svg viewBox="0 0 395.52 124.77291826536006" height="124.77291826536006" width="395.52"><g><svg viewBox="0 0 690.3347157604558 217.77679274201031" height="124.77291826536006" width="395.52"><g><rect width="8.079950420022717" height="193.51475757282003" x="265.5830626702165" y="12.131017584595142" fill="#551e19" opacity="1" stroke-width="0" stroke="transparent" fill-opacity="1" class="rect-in-0" data-fill-palette-color="primary" rx="1%" id="in-0" data-palette-color="#551e19"></rect></g><g transform="matrix(1,0,0,1,294.8147157604558,12.612397578557378)"><svg viewBox="0 0 395.52 192.55199758489556" height="192.55199758489556" width="395.52"><g><svg viewBox="0 0 395.52 192.55199758489556" height="192.55199758489556" width="395.52"><g><svg viewBox="0 0 395.52 89.59700549914662" height="89.59700549914662" width="395.52"><g transform="matrix(1,0,0,1,0,0)"><svg width="395.52" viewBox="3.69 -35.51044921875 159.44 36.00044921875" height="89.59700549914662" data-palette-color="#551e19"><g class="undefined-text-0" data-fill-palette-color="primary" id="text-0"><path d="M44.43-32.3L44.43 0 38.04 0 38.04-20.85 26.78-1.05Q26.37-0.29 25.62 0.1 24.88 0.49 24.02 0.49L24.02 0.49Q23.19 0.49 22.47 0.1 21.75-0.29 21.34-1.05L21.34-1.05 10.03-20.85 10.03 0 3.69 0 3.69-32.3Q3.69-33.4 4.33-34.25 4.98-35.11 6.03-35.4L6.03-35.4Q6.54-35.52 7.06-35.49 7.57-35.45 8.04-35.27 8.52-35.08 8.91-34.75 9.3-34.42 9.57-33.96L9.57-33.96 24.02-8.84 38.48-33.96Q39.04-34.89 40.03-35.28 41.02-35.67 42.09-35.4L42.09-35.4Q43.12-35.11 43.77-34.25 44.43-33.4 44.43-32.3L44.43-32.3ZM80.59-20.7L80.59-14.31 60.54-14.31 60.54-20.7 80.59-20.7ZM83.44-6.35L83.44 0 60.54 0Q59.23 0 57.66-0.46 56.1-0.93 54.77-1.99 53.44-3.05 52.55-4.75 51.66-6.45 51.66-8.91L51.66-8.91 51.66-31.81Q51.66-32.47 51.9-33.06 52.15-33.64 52.57-34.08 53-34.52 53.59-34.77 54.17-35.01 54.86-35.01L54.86-35.01 83.44-35.01 83.44-28.66 58.01-28.66 58.01-8.91Q58.01-7.67 58.66-7.01 59.32-6.35 60.59-6.35L60.59-6.35 83.44-6.35ZM121.72-6.35L121.72 0 92.77 0Q92.08 0 91.5-0.24 90.91-0.49 90.49-0.92 90.06-1.34 89.81-1.93 89.57-2.51 89.57-3.2L89.57-3.2 89.57-35.01 95.92-35.01 95.92-6.35 121.72-6.35ZM163.13-20.85L163.13-14.16Q163.13-10.96 162.03-8.28 160.93-5.59 158.98-3.64 157.02-1.68 154.35-0.6 151.68 0.49 148.53 0.49L148.53 0.49 139.93 0.49Q136.78 0.49 134.1-0.6 131.41-1.68 129.46-3.64 127.51-5.59 126.4-8.28 125.29-10.96 125.29-14.16L125.29-14.16 125.29-20.85Q125.29-24.02 126.4-26.72 127.51-29.42 129.46-31.36 131.41-33.3 134.1-34.4 136.78-35.5 139.93-35.5L139.93-35.5 148.53-35.5Q151.68-35.5 154.35-34.4 157.02-33.3 158.98-31.36 160.93-29.42 162.03-26.72 163.13-24.02 163.13-20.85L163.13-20.85ZM156.78-14.16L156.78-20.85Q156.78-22.73 156.18-24.26 155.58-25.78 154.5-26.87 153.41-27.95 151.88-28.55 150.36-29.15 148.53-29.15L148.53-29.15 139.93-29.15Q138.08-29.15 136.55-28.55 135.03-27.95 133.93-26.87 132.83-25.78 132.23-24.26 131.63-22.73 131.63-20.85L131.63-20.85 131.63-14.16Q131.63-12.28 132.23-10.75 132.83-9.23 133.93-8.14 135.03-7.06 136.55-6.46 138.08-5.86 139.93-5.86L139.93-5.86 148.48-5.86Q150.33-5.86 151.86-6.46 153.39-7.06 154.48-8.14 155.58-9.23 156.18-10.75 156.78-12.28 156.78-14.16L156.78-14.16Z" fill="#551e19" data-fill-palette-color="primary"></path></g></svg></g></svg></g><g transform="matrix(1,0,0,1,0,110.74870816936316)"><svg viewBox="0 0 232.209792 81.80328941553242" height="81.80328941553242" width="232.209792"><g transform="matrix(1,0,0,1,0,0)"><svg width="232.209792" viewBox="4 -35.6 124.88999999999999 44" height="81.80328941553242" data-palette-color="#c56e33"><path d="M7.05-35.35L7.05 0 4 0 4-35.35 7.05-35.35ZM18.1-25.35L18.1 0 15.05 0 15.05-25.35 18.1-25.35ZM18.07-34.98Q18.7-34.35 18.7-33.45 18.7-32.55 18.07-31.95 17.45-31.35 16.55-31.35 15.65-31.35 15.05-31.95 14.45-32.55 14.45-33.45 14.45-34.35 15.05-34.98 15.65-35.6 16.55-35.6 17.45-35.6 18.07-34.98ZM29.15-3.7L29.15 0 26.1 0 26.1-35.35 29.15-35.35 29.15-21.55Q31.95-25.75 36.9-25.75L36.9-25.75Q41.7-25.75 44.75-22.03 47.8-18.3 47.8-12.4L47.8-12.4Q47.8-7.05 44.95-3.33 42.09 0.4 37 0.4L37 0.4Q31.8 0.4 29.15-3.7L29.15-3.7ZM29.15-12.8L29.15-12.8Q29.15-7.25 31.5-4.88 33.84-2.5 37.09-2.5 40.34-2.5 42.47-5.25 44.59-8 44.59-12.35L44.59-12.35Q44.59-17.4 42.4-20.13 40.2-22.85 36.8-22.85L36.8-22.85Q35.59-22.85 34.37-22.38 33.15-21.9 31.92-20.83 30.7-19.75 29.92-17.68 29.15-15.6 29.15-12.8ZM56.89-14.15L56.89 0 53.84 0 53.84-25.35 56.89-25.35 56.89-21.05Q58.99-25.65 63.99-25.65L63.99-25.65Q64.34-25.65 65.24-25.55L65.24-25.55 65.24-22.45Q64.24-22.75 63.24-22.75L63.24-22.75Q60.54-22.75 58.72-20.08 56.89-17.4 56.89-14.15L56.89-14.15ZM76.89-2.55L76.89-2.55Q79.89-2.55 81.69-4.2 83.49-5.85 83.49-8.4L83.49-8.4 83.49-12.05 78.54-12.05Q74.99-12.05 73.24-10.68 71.49-9.3 71.49-7.25L71.49-7.25Q71.49-5.15 72.87-3.85 74.24-2.55 76.89-2.55ZM83.49 0L83.49-2.95Q81.39 0.25 76.19 0.25L76.19 0.25Q72.69 0.25 70.47-1.83 68.24-3.9 68.24-7.15L68.24-7.15Q68.24-10.8 71.07-12.83 73.89-14.85 78.54-14.85L78.54-14.85 83.49-14.85 83.49-16Q83.49-19.4 82.04-21.13 80.59-22.85 77.19-22.85L77.19-22.85Q73.24-22.85 70.09-20.7L70.09-20.7 70.09-24Q72.99-25.75 77.24-25.75L77.24-25.75Q86.54-25.75 86.54-16L86.54-16 86.54 0 83.49 0ZM96.89-14.15L96.89 0 93.84 0 93.84-25.35 96.89-25.35 96.89-21.05Q98.99-25.65 103.99-25.65L103.99-25.65Q104.34-25.65 105.24-25.55L105.24-25.55 105.24-22.45Q104.24-22.75 103.24-22.75L103.24-22.75Q100.54-22.75 98.71-20.08 96.89-17.4 96.89-14.15L96.89-14.15ZM128.89-25.35L119.69-0.65Q117.79 4.5 115.19 6.45 112.59 8.4 109.29 8.4L109.29 8.4Q108.29 8.4 107.39 8.15L107.39 8.15 107.39 5.15Q108.29 5.4 109.09 5.4L109.09 5.4Q114.44 5.4 116.54-0.7L116.54-0.7 106.19-25.35 109.69-25.35 113.14-16.85 118.04-4.65Q118.39-5.8 122.39-16.85L122.39-16.85 125.49-25.35 128.89-25.35Z" opacity="1" transform="matrix(1,0,0,1,0,0)" fill="#c56e33" class="undefined-text-1" data-fill-palette-color="secondary" id="text-1"></path></svg></g></svg></g></svg></g></svg></g><g><svg viewBox="0 0 244.43135999999998 217.77679274201031" height="217.77679274201031" width="244.43135999999998"><g><svg xmlns="http://www.w3.org/2000/svg" xmlns:xlink="http://www.w3.org/1999/xlink" version="1.1" x="0" y="0" viewBox="9.17995543914088 13.699999999999996 81.710281357116 72.80000000000001" enable-background="new 0 0 100 100" xml:space="preserve" height="217.77679274201031" width="244.43135999999998" class="icon-icon-0" data-fill-palette-color="accent" id="icon-0"><g fill="#c56e33" data-fill-palette-color="accent"><g fill="#c56e33" data-fill-palette-color="accent"><g fill="#c56e33" data-fill-palette-color="accent"><path fill="#c56e33" d="M50.1 19h-0.1c-18.2 0.6-30.4 10.6-32.5 29.3-0.1 0.9 0.7 0.7 1.1 0.5 1.1-0.6 2.3-0.9 3.4-1.1 1.2-0.3 1.9 0.2 2.2 1.3 1.6 7.8 2.9 21.5 3.3 34.1 0.1 1.8-0.6 2.8-2.1 3-4.6 0.5-9.3-2.1-12.5-7C9.2 72.4 8.5 64.3 10.7 57c0.4-1.3 1-2.2 1.8-2.7-0.6-3.1-0.9-6.1-0.9-8.9-0.1-1.7 1.1-2.2 2.2-1.3 0.5 0.4 0.8 0.2 0.9-0.4 4.5-18.4 17.7-29.1 35.2-29.7l0.2 0c17.5 0.6 30.6 11.4 35.2 29.8 0.1 0.7 0.4 0.8 0.9 0.4 1.2-0.8 2.3-0.4 2.2 1.3 0 2.8-0.3 5.8-0.9 8.9 0.8 0.5 1.4 1.4 1.8 2.7 2.2 7.4 1.5 15.4-2.2 22.2-3.2 4.8-7.9 7.5-12.5 7-1.5-0.2-2.2-1.2-2.1-3 0.4-12.6 1.7-26.3 3.3-34.1 0.3-1.2 1-1.6 2.2-1.3 1.1 0.2 2.2 0.6 3.4 1.1 0.4 0.2 1.2 0.3 1.1-0.5C80.5 29.6 68.2 19.7 50.1 19z" data-fill-palette-color="accent"></path></g><g fill="#c56e33" data-fill-palette-color="accent"><path fill="#c56e33" d="M75.6 86.5c-0.4 0-0.7 0-1.1-0.1-1.2-0.2-2.5-0.9-2.3-3.3 0.4-12.6 1.7-26.4 3.3-34.1 0.3-1.4 1.2-1.6 1.9-1.6 0.2 0 0.4 0 0.7 0.1 1.1 0.2 2.3 0.6 3.4 1.1 0.1 0.1 0.3 0.1 0.5 0.1 0.1 0 0.2 0 0.2-0.1 0 0 0.1-0.2 0-0.3C80.3 30.5 68.6 20 50 19.3h-0.1c-18.5 0.6-30.3 11.2-32.2 29 0 0.1 0 0.3 0 0.3 0 0.1 0.1 0.1 0.2 0.1 0.2 0 0.4-0.1 0.5-0.1 1.2-0.6 2.3-1 3.4-1.1 0.2-0.1 0.5-0.1 0.7-0.1 0.7 0 1.5 0.3 1.9 1.6 1.6 7.8 2.9 21.5 3.3 34.1 0.2 2.4-1.2 3.1-2.3 3.3-0.4 0-0.7 0.1-1.1 0.1-4.4 0-8.6-2.6-11.7-7.2C9 72.6 8.2 64.4 10.4 56.9c0.4-1.2 1-2.2 1.7-2.7-0.6-3.1-0.9-6-0.9-8.8 0-0.7 0.1-1.3 0.5-1.6 0.5-0.5 1.4-0.5 2.2 0.1 0.2 0.1 0.3 0.2 0.3 0.2 0 0 0.1-0.1 0.2-0.4 4.6-18.4 17.5-29.4 35.5-30l0.2 0c18 0.6 30.9 11.6 35.5 30 0.1 0.4 0.1 0.4 0.2 0.4 0 0 0.1 0 0.3-0.1 0.9-0.6 1.7-0.6 2.2-0.1 0.3 0.4 0.5 0.9 0.5 1.7 0 2.8-0.3 5.7-0.9 8.8 0.8 0.6 1.3 1.5 1.7 2.7 2.3 7.5 1.5 15.7-2.2 22.4C84.3 83.8 80 86.5 75.6 86.5zM77.4 48c-0.7 0-1.1 0.4-1.3 1.2-1.6 7.7-2.9 21.4-3.3 34-0.1 1.6 0.5 2.5 1.8 2.7 0.3 0 0.7 0 1 0 4.2 0 8.3-2.5 11.2-6.9 3.6-6.6 4.4-14.5 2.2-21.9-0.4-1.2-0.9-2-1.7-2.5l-0.2-0.1 0-0.2c0.6-3.1 0.9-6.1 0.9-8.9 0-0.6-0.1-1-0.3-1.2-0.3-0.3-0.9-0.3-1.5 0.1-0.2 0.2-0.4 0.3-0.6 0.3-0.3 0-0.6-0.2-0.7-0.9-4.5-18.1-17.2-28.9-34.9-29.5l-0.2 0C32.2 14.7 19.5 25.5 15 43.7c-0.1 0.7-0.5 0.9-0.7 0.9-0.2 0-0.4-0.1-0.6-0.3-0.6-0.4-1.1-0.5-1.4-0.1-0.2 0.2-0.3 0.7-0.3 1.2 0 2.8 0.3 5.8 0.9 8.9l0 0.2-0.2 0.1C11.9 55 11.3 55.8 11 57 8.7 64.4 9.5 72.4 13.2 79c3.2 4.7 7.7 7.3 12.2 6.8 1.4-0.2 1.9-1 1.8-2.7-0.4-12.6-1.7-26.3-3.3-34-0.2-1-0.8-1.3-1.9-1.1-1.1 0.2-2.2 0.5-3.3 1.1-0.5 0.2-1.1 0.2-1.4-0.1-0.2-0.2-0.2-0.4-0.2-0.8 1.9-18.1 13.9-28.9 32.7-29.5h0.1c18.9 0.7 30.8 11.4 32.7 29.5 0 0.3 0 0.6-0.2 0.7-0.3 0.3-0.9 0.3-1.4 0.1C80.1 48.6 79 48.2 78 48 77.7 48 77.5 48 77.4 48z" data-fill-palette-color="accent"></path></g></g><g fill="#c56e33" data-fill-palette-color="accent"><g fill="#c56e33" data-fill-palette-color="accent"><path fill="#c56e33" d="M81.9 49.1C78.4 32.3 66.2 21.6 50.2 21 34.7 20.7 21.5 32.2 18 48.9l-1-0.2c3.6-17 17-28.6 32.6-28.6 0.2 0 0.4 0 0.6 0 16.5 0.6 29 11.6 32.6 28.9L81.9 49.1z" data-fill-palette-color="accent"></path></g></g></g></svg></g></svg></g></svg></g><defs></defs></svg><rect width="395.52" height="124.77291826536006" fill="none" stroke="none" visibility="hidden"></rect></g></svg></g></svg>